<svg width="18" height="18" viewBox="0 0 18 18" fill="none" xmlns="http://www.w3.org/2000/svg">
<path fill-rule="evenodd" clip-rule="evenodd" d="M9 0C5.6061 0 3.9087 -1.07288e-07 2.8548 1.0548C1.8972 2.0115 1.809 3.4974 1.8 6.3H0.9C0.661305 6.3 0.432387 6.39482 0.263604 6.5636C0.0948211 6.73239 0 6.9613 0 7.2V8.1C0 8.23972 0.0325305 8.37752 0.0950154 8.50249C0.1575 8.62746 0.248224 8.73617 0.36 8.82L1.8 9.9C1.809 12.7026 1.8972 14.1885 2.8548 15.1452C3.0726 15.3639 3.3174 15.5367 3.6 15.6735V17.1C3.6 17.3387 3.69482 17.5676 3.8636 17.7364C4.03239 17.9052 4.26131 18 4.5 18H5.85C6.08869 18 6.31761 17.9052 6.4864 17.7364C6.65518 17.5676 6.75 17.3387 6.75 17.1V16.1838C7.4043 16.2 8.1486 16.2 9 16.2C9.8514 16.2 10.5957 16.2 11.25 16.1838V17.1C11.25 17.3387 11.3448 17.5676 11.5136 17.7364C11.6824 17.9052 11.9113 18 12.15 18H13.5C13.7387 18 13.9676 17.9052 14.1364 17.7364C14.3052 17.5676 14.4 17.3387 14.4 17.1V15.6735C14.6766 15.541 14.9286 15.3623 15.1452 15.1452C16.1028 14.1885 16.1919 12.7026 16.2 9.9L17.64 8.82C17.7518 8.73617 17.8425 8.62746 17.905 8.50249C17.9675 8.37752 18 8.23972 18 8.1V7.2C18 6.9613 17.9052 6.73239 17.7364 6.5636C17.5676 6.39482 17.3387 6.3 17.1 6.3H16.2C16.191 3.4974 16.1028 2.0115 15.1452 1.0548C14.0913 -1.07288e-07 12.3939 0 9 0ZM3.15 6.75C3.15 8.0226 3.15 8.6589 3.546 9.054C3.9411 9.45 4.5774 9.45 5.85 9.45H12.15C13.4226 9.45 14.0589 9.45 14.454 9.054C14.85 8.6589 14.85 8.0226 14.85 6.75V4.5C14.85 3.2274 14.85 2.5911 14.454 2.196C14.0598 1.8 13.4235 1.8 12.15 1.8H5.85C4.5774 1.8 3.9411 1.8 3.546 2.196C3.15 2.5902 3.15 3.2265 3.15 4.5V6.75ZM3.825 12.6C3.825 12.421 3.89612 12.2493 4.0227 12.1227C4.14929 11.9961 4.32098 11.925 4.5 11.925H5.85C6.02902 11.925 6.20071 11.9961 6.3273 12.1227C6.45388 12.2493 6.525 12.421 6.525 12.6C6.525 12.779 6.45388 12.9507 6.3273 13.0773C6.20071 13.2039 6.02902 13.275 5.85 13.275H4.5C4.32098 13.275 4.14929 13.2039 4.0227 13.0773C3.89612 12.9507 3.825 12.779 3.825 12.6ZM14.175 12.6C14.175 12.421 14.1039 12.2493 13.9773 12.1227C13.8507 11.9961 13.679 11.925 13.5 11.925H12.15C11.971 11.925 11.7993 11.9961 11.6727 12.1227C11.5461 12.2493 11.475 12.421 11.475 12.6C11.475 12.779 11.5461 12.9507 11.6727 13.0773C11.7993 13.2039 11.971 13.275 12.15 13.275H13.5C13.679 13.275 13.8507 13.2039 13.9773 13.0773C14.1039 12.9507 14.175 12.779 14.175 12.6Z" fill="#999999"/>
</svg>
