<svg width="16" height="18" viewBox="0 0 16 18" fill="none" xmlns="http://www.w3.org/2000/svg">
<path d="M8 4.00024C7.21207 4.00024 6.43185 4.15544 5.7039 4.45697C4.97595 4.7585 4.31451 5.20045 3.75736 5.7576C2.63214 6.88282 2 8.40895 2 10.0002C2 11.5915 2.63214 13.1177 3.75736 14.2429C4.31451 14.8 4.97595 15.242 5.7039 15.5435C6.43185 15.8451 7.21207 16.0002 8 16.0002C9.5913 16.0002 11.1174 15.3681 12.2426 14.2429C13.3679 13.1177 14 11.5915 14 10.0002C14 9.21231 13.8448 8.4321 13.5433 7.70414C13.2417 6.97619 12.7998 6.31476 12.2426 5.7576C11.6855 5.20045 11.0241 4.7585 10.2961 4.45697C9.56815 4.15544 8.78793 4.00024 8 4.00024ZM10.52 12.5202L7.4 10.6002V7.00024H8.3V10.1202L11 11.7402L10.52 12.5202Z" fill="#999999"/>
<path d="M8 18C6.89067 18 5.85133 17.7933 4.882 17.3801C3.91267 16.9669 3.06533 16.4011 2.34 15.6829C1.61467 14.9647 1.04333 14.1257 0.626 13.1658C0.208667 12.206 0 11.1769 0 10.0784C0 9.93782 0.0476668 9.81998 0.143 9.72492C0.238333 9.62987 0.357333 9.58267 0.5 9.58333C0.642667 9.58399 0.761667 9.63119 0.857 9.72492C0.952333 9.81866 1 9.93649 1 10.0784C1 12.0093 1.67933 13.6474 3.038 14.9927C4.39667 16.3381 6.05067 17.0104 8 17.0098C9.94933 17.0091 11.6037 16.3368 12.963 14.9927C14.3223 13.6487 15.0013 12.0106 15 10.0784C14.9987 8.14623 14.3197 6.50845 12.963 5.16509C11.6063 3.82173 9.952 3.14906 8 3.14708H7.62L7.74169 3.14622C7.74169 3.14622 7.99533 2.86954 8 3.00024C8.00467 3.13095 8.10667 3.03749 8 3.14708C8 3.14708 7.748 3.1451 7.62 3.14708C7.49333 3.14906 6.516 3.38699 6.258 3.19361C6 3.00024 6.015 2.84639 6.015 2.63317C6.015 2.41994 6.096 2.23313 6.258 2.07272L8.218 0.151743C8.31467 0.0553647 8.43033 0.00486504 8.565 0.000244141C8.69833 -0.00437676 8.82033 0.0481034 8.931 0.157685C9.03767 0.266606 9.09167 0.383449 9.093 0.508213C9.09433 0.632977 9.04033 0.74982 8.931 0.858741L7.619 2.15688H8C9.10933 2.15688 10.1487 2.3635 11.118 2.77674C12.0873 3.18998 12.9347 3.75571 13.66 4.47393C14.3853 5.19215 14.9567 6.03118 15.374 6.991C15.7913 7.95083 16 8.97997 16 10.0784C16 11.1769 15.7913 12.206 15.374 13.1658C14.9567 14.1257 14.3853 14.965 13.66 15.6839C12.9347 16.4028 12.0873 16.9682 11.118 17.3801C10.1487 17.792 9.10933 17.9986 8 18Z" fill="#999999"/>
</svg>
