<svg width="17" height="18" viewBox="0 0 17 18" fill="none" xmlns="http://www.w3.org/2000/svg">
<path d="M4.44737 10.9167C4.83123 10.9167 5.19938 10.763 5.47081 10.4895C5.74225 10.216 5.89474 9.84511 5.89474 9.45833C5.89474 9.07156 5.74225 8.70063 5.47081 8.42714C5.19938 8.15365 4.83123 8 4.44737 8C4.0635 8 3.69536 8.15365 3.42392 8.42714C3.15249 8.70063 3 9.07156 3 9.45833C3 9.84511 3.15249 10.216 3.42392 10.4895C3.69536 10.763 4.0635 10.9167 4.44737 10.9167ZM4.44737 15C4.83123 15 5.19938 14.8464 5.47081 14.5729C5.74225 14.2994 5.89474 13.9284 5.89474 13.5417C5.89474 13.1549 5.74225 12.784 5.47081 12.5105C5.19938 12.237 4.83123 12.0833 4.44737 12.0833C4.0635 12.0833 3.69536 12.237 3.42392 12.5105C3.15249 12.784 3 13.1549 3 13.5417C3 13.9284 3.15249 14.2994 3.42392 14.5729C3.69536 14.8464 4.0635 15 4.44737 15ZM9.94737 9.45833C9.94737 9.84511 9.79488 10.216 9.52344 10.4895C9.25201 10.763 8.88387 10.9167 8.5 10.9167C8.11613 10.9167 7.74799 10.763 7.47656 10.4895C7.20512 10.216 7.05263 9.84511 7.05263 9.45833C7.05263 9.07156 7.20512 8.70063 7.47656 8.42714C7.74799 8.15365 8.11613 8 8.5 8C8.88387 8 9.25201 8.15365 9.52344 8.42714C9.79488 8.70063 9.94737 9.07156 9.94737 9.45833ZM8.5 15C8.88387 15 9.25201 14.8464 9.52344 14.5729C9.79488 14.2994 9.94737 13.9284 9.94737 13.5417C9.94737 13.1549 9.79488 12.784 9.52344 12.5105C9.25201 12.237 8.88387 12.0833 8.5 12.0833C8.11613 12.0833 7.74799 12.237 7.47656 12.5105C7.20512 12.784 7.05263 13.1549 7.05263 13.5417C7.05263 13.9284 7.20512 14.2994 7.47656 14.5729C7.74799 14.8464 8.11613 15 8.5 15ZM14 9.45833C14 9.84511 13.8475 10.216 13.5761 10.4895C13.3046 10.763 12.9365 10.9167 12.5526 10.9167C12.1688 10.9167 11.8006 10.763 11.5292 10.4895C11.2578 10.216 11.1053 9.84511 11.1053 9.45833C11.1053 9.07156 11.2578 8.70063 11.5292 8.42714C11.8006 8.15365 12.1688 8 12.5526 8C12.9365 8 13.3046 8.15365 13.5761 8.42714C13.8475 8.70063 14 9.07156 14 9.45833Z" fill="#999999"/>
<path fill-rule="evenodd" clip-rule="evenodd" d="M4.1129 0C4.33107 0 4.54029 0.0836656 4.69456 0.232592C4.84882 0.381518 4.93548 0.583505 4.93548 0.794118V1.58824H12.0645V0.794118C12.0645 0.583505 12.1512 0.381518 12.3054 0.232592C12.4597 0.0836656 12.6689 0 12.8871 0C13.1053 0 13.3145 0.0836656 13.4688 0.232592C13.623 0.381518 13.7097 0.583505 13.7097 0.794118V1.59671C13.8764 1.60094 14.0318 1.60871 14.1758 1.62C14.5926 1.65177 14.983 1.72376 15.3526 1.90588C15.9203 2.18506 16.3818 2.63059 16.671 3.17859C16.8596 3.53541 16.9342 3.91235 16.9671 4.31471C17 4.70118 17 5.17235 17 5.73882V13.8494C17 14.4159 17 14.8871 16.9671 15.2735C16.9342 15.6759 16.8596 16.0528 16.671 16.4096C16.3821 16.9575 15.921 17.403 15.3537 17.6824C14.983 17.8645 14.5926 17.9365 14.1758 17.9682C13.7755 18 13.2874 18 12.7017 18H4.29936C3.71258 18 3.22452 18 2.82419 17.9682C2.40742 17.9365 2.01697 17.8645 1.64735 17.6824C1.08005 17.4037 0.618592 16.959 0.329032 16.4118C0.140387 16.0539 0.0658067 15.6769 0.0329035 15.2746C2.30848e-07 14.8881 0 14.4169 0 13.8515V5.73882C0 5.17235 2.30848e-07 4.70118 0.0329035 4.31471C0.0658067 3.91235 0.140387 3.53541 0.329032 3.17859C0.618219 2.63059 1.07972 2.18506 1.64735 1.90588C2.01697 1.72376 2.40742 1.65177 2.82419 1.62C2.96824 1.60871 3.12361 1.60094 3.29032 1.59671V0.794118C3.29032 0.689833 3.3116 0.586569 3.35294 0.490222C3.39428 0.393875 3.45487 0.306332 3.53125 0.232592C3.60763 0.158851 3.69832 0.100357 3.79812 0.0604485C3.89792 0.0205404 4.00488 0 4.1129 0ZM15.3548 7.41177H1.64516V13.8176C1.64516 14.4233 1.64516 14.8309 1.67258 15.1433C1.69781 15.4482 1.74387 15.5933 1.79432 15.6886C1.92594 15.9385 2.13542 16.1407 2.39426 16.2678C2.49297 16.3165 2.64323 16.3609 2.958 16.3853C3.28265 16.4107 3.70381 16.4118 4.33226 16.4118H12.6677C13.2951 16.4118 13.7174 16.4118 14.0409 16.3853C14.3568 16.3609 14.507 16.3165 14.6057 16.2678C14.8641 16.1408 15.0742 15.938 15.2057 15.6886C15.2561 15.5933 15.3022 15.4482 15.3274 15.1433C15.3537 14.8309 15.3548 14.4233 15.3548 13.8176V7.41177ZM6.85484 3.97059C6.63668 3.97059 6.42745 4.05425 6.27319 4.20318C6.11892 4.35211 6.03226 4.55409 6.03226 4.76471C6.03226 4.97532 6.11892 5.17731 6.27319 5.32623C6.42745 5.47516 6.63668 5.55882 6.85484 5.55882H10.1452C10.3633 5.55882 10.5725 5.47516 10.7268 5.32623C10.8811 5.17731 10.9677 4.97532 10.9677 4.76471C10.9677 4.55409 10.8811 4.35211 10.7268 4.20318C10.5725 4.05425 10.3633 3.97059 10.1452 3.97059H6.85484Z" fill="#999999"/>
</svg>
